<svg xmlns="http://www.w3.org/2000/svg" xmlns:xlink="http://www.w3.org/1999/xlink" width="215" zoomAndPan="magnify" viewBox="0 0 161.25 161.249997" height="215" preserveAspectRatio="xMidYMid meet" version="1.0"><defs><clipPath id="6d8220f3b3"><path d="M 0 0 L 160.210938 0 L 160.210938 160.503906 L 0 160.503906 Z M 0 0 " clip-rule="nonzero"/></clipPath><clipPath id="7a154400f2"><path d="M 80.109375 -80.105469 L 240.582031 80.367188 L 80.109375 240.839844 L -80.367188 80.367188 Z M 80.109375 -80.105469 " clip-rule="nonzero"/></clipPath></defs><g clip-path="url(#6d8220f3b3)"><g clip-path="url(#7a154400f2)"><path fill="#eb0012" d="M 160.210938 109.535156 L 160.210938 0 L 0.00390625 0 L 0.00390625 160.207031 L 17.15625 160.207031 L 17.15625 17.152344 L 143.058594 17.152344 L 143.058594 92.382812 L 101.351562 92.382812 L 101.351562 109.53125 Z M 134.875 84.585938 L 134.875 25.335938 L 25.339844 25.335938 L 25.34375 160.207031 L 42.492188 160.207031 L 42.492188 42.488281 L 117.722656 42.488281 L 117.722656 67.433594 L 101.351562 67.433594 L 101.351562 84.585938 Z M 67.828125 143.054688 L 67.828125 50.675781 L 50.679688 50.675781 L 50.679688 160.207031 L 160.210938 160.207031 L 160.210938 143.054688 Z M 93.167969 117.71875 L 93.167969 50.671875 L 76.015625 50.671875 L 76.015625 134.871094 L 160.210938 134.871094 L 160.210938 117.71875 Z M 93.167969 117.71875 " fill-opacity="1" fill-rule="evenodd"/></g></g></svg>