<svg xmlns="http://www.w3.org/2000/svg" xmlns:xlink="http://www.w3.org/1999/xlink" width="387" zoomAndPan="magnify" viewBox="0 0 290.25 98.999996" height="132" preserveAspectRatio="xMidYMid meet" version="1.0"><defs><g/><clipPath id="eeceada615"><path d="M 0 0.128906 L 275 0.128906 L 275 98.871094 L 0 98.871094 Z M 0 0.128906 " clip-rule="nonzero"/></clipPath><clipPath id="4b705ea143"><rect x="0" width="186" y="0" height="60"/></clipPath><clipPath id="1a9a8a9150"><path d="M 3.933594 0.128906 L 69.441406 0.128906 L 69.441406 65.636719 L 3.933594 65.636719 Z M 3.933594 0.128906 " clip-rule="nonzero"/></clipPath><clipPath id="955a4730da"><path d="M 36.425781 -32.894531 L 102.734375 33.414062 L 36.425781 99.71875 L -29.878906 33.414062 Z M 36.425781 -32.894531 " clip-rule="nonzero"/></clipPath><clipPath id="3676de1951"><path d="M 4 74 L 274.089844 74 L 274.089844 88 L 4 88 Z M 4 74 " clip-rule="nonzero"/></clipPath><clipPath id="5459a09bf3"><path d="M 0.0703125 2 L 7 2 L 7 10 L 0.0703125 10 Z M 0.0703125 2 " clip-rule="nonzero"/></clipPath><clipPath id="945c4dd49d"><rect x="0" width="271" y="0" height="14"/></clipPath><clipPath id="1e920fc6a1"><rect x="0" width="275" y="0" height="99"/></clipPath></defs><g clip-path="url(#eeceada615)"><g transform="matrix(1, 0, 0, 1, 0, -0.000000000000003858)"><g clip-path="url(#1e920fc6a1)"><g transform="matrix(1, 0, 0, 1, 88, 22)"><g clip-path="url(#4b705ea143)"><g fill="#ffffff" fill-opacity="1"><g transform="translate(0.446998, 43.689709)"><g><path d="M 19.484375 -36.296875 C 21.578125 -36.296875 23.457031 -35.789062 25.125 -34.78125 C 26.800781 -33.769531 28.132812 -32.414062 29.125 -30.71875 C 30.113281 -29.03125 30.609375 -27.160156 30.609375 -25.109375 C 30.609375 -23.003906 30.113281 -21.132812 29.125 -19.5 C 28.132812 -17.875 26.800781 -16.585938 25.125 -15.640625 C 23.457031 -14.691406 21.578125 -14.21875 19.484375 -14.21875 L 12.578125 -14.21875 L 12.578125 0 L 3.328125 0 L 3.328125 -36.296875 Z M 17.96875 -21.71875 C 19.050781 -21.71875 19.945312 -22.03125 20.65625 -22.65625 C 21.363281 -23.28125 21.71875 -24.078125 21.71875 -25.046875 C 21.71875 -25.972656 21.363281 -26.738281 20.65625 -27.34375 C 19.945312 -27.945312 19.050781 -28.25 17.96875 -28.25 L 12.578125 -28.25 L 12.578125 -21.71875 Z M 17.96875 -21.71875 "/></g></g></g><g fill="#ffffff" fill-opacity="1"><g transform="translate(30.998231, 43.689709)"><g><path d="M 25.59375 0 L 23.59375 -6.34375 L 10.890625 -6.34375 L 8.890625 0 L -1.09375 0 L 12.03125 -36.296875 L 22.375 -36.296875 L 35.5 0 Z M 13.25 -13.859375 L 21.296875 -13.859375 L 17.234375 -26.671875 Z M 13.25 -13.859375 "/></g></g></g><g fill="#ffffff" fill-opacity="1"><g transform="translate(65.481802, 43.689709)"><g><path d="M 3.625 0 L 3.625 -36.296875 L 12.890625 -36.296875 L 12.890625 0 Z M 3.625 0 "/></g></g></g><g fill="#ffffff" fill-opacity="1"><g transform="translate(81.937119, 43.689709)"><g><path d="M 26.4375 -36.296875 L 26.4375 -28.25 L 17.546875 -28.25 L 17.546875 0 L 8.34375 0 L 8.34375 -28.25 L -0.546875 -28.25 L -0.546875 -36.296875 Z M 26.4375 -36.296875 "/></g></g></g><g fill="#ffffff" fill-opacity="1"><g transform="translate(107.83005, 43.689709)"><g><path d="M 25.59375 0 L 23.59375 -6.34375 L 10.890625 -6.34375 L 8.890625 0 L -1.09375 0 L 12.03125 -36.296875 L 22.375 -36.296875 L 35.5 0 Z M 13.25 -13.859375 L 21.296875 -13.859375 L 17.234375 -26.671875 Z M 13.25 -13.859375 "/></g></g></g><g fill="#ffffff" fill-opacity="1"><g transform="translate(142.313621, 43.689709)"><g><path d="M 29.390625 -36.296875 L 38.65625 -36.296875 L 38.65625 0 L 28.90625 0 L 12.578125 -22.265625 L 12.578125 0 L 3.328125 0 L 3.328125 -36.296875 L 13 -36.296875 L 29.390625 -14.09375 Z M 29.390625 -36.296875 "/></g></g></g></g></g><g clip-path="url(#1a9a8a9150)"><g clip-path="url(#955a4730da)"><path fill="#eb0012" d="M 69.445312 45.273438 L 69.445312 0.125 L 3.410156 0.125 L 3.410156 66.160156 L 10.480469 66.160156 L 10.480469 7.195312 L 62.375 7.195312 L 62.375 38.203125 L 45.183594 38.203125 L 45.183594 45.273438 Z M 59 34.992188 L 59 10.570312 L 13.855469 10.570312 L 13.855469 66.160156 L 20.921875 66.160156 L 20.921875 17.636719 L 51.933594 17.636719 L 51.933594 27.921875 L 45.183594 27.921875 L 45.183594 34.992188 Z M 31.367188 59.089844 L 31.367188 21.011719 L 24.296875 21.011719 L 24.296875 66.160156 L 69.445312 66.160156 L 69.445312 59.089844 Z M 41.808594 48.648438 L 41.808594 21.011719 L 34.742188 21.011719 L 34.742188 55.714844 L 69.445312 55.71875 L 69.445312 48.648438 Z M 41.808594 48.648438 " fill-opacity="1" fill-rule="evenodd"/></g></g><g clip-path="url(#3676de1951)"><g transform="matrix(1, 0, 0, 1, 4, 74)"><g clip-path="url(#945c4dd49d)"><g clip-path="url(#5459a09bf3)"><g fill="#ffffff" fill-opacity="1"><g transform="translate(0.263625, 9.691036)"><g><path d="M 4.703125 -2.875 L 6.71875 0 L 4.640625 0 L 2.9375 -2.65625 L 2.515625 -2.65625 L 2.515625 0 L 0.671875 0 L 0.671875 -7.265625 L 3.90625 -7.265625 C 4.332031 -7.265625 4.710938 -7.160156 5.046875 -6.953125 C 5.390625 -6.742188 5.65625 -6.46875 5.84375 -6.125 C 6.03125 -5.78125 6.125 -5.398438 6.125 -4.984375 C 6.125 -4.484375 5.992188 -4.039062 5.734375 -3.65625 C 5.472656 -3.28125 5.128906 -3.019531 4.703125 -2.875 Z M 3.59375 -4.15625 C 3.8125 -4.15625 3.988281 -4.222656 4.125 -4.359375 C 4.269531 -4.503906 4.34375 -4.6875 4.34375 -4.90625 C 4.34375 -5.125 4.269531 -5.300781 4.125 -5.4375 C 3.988281 -5.582031 3.8125 -5.65625 3.59375 -5.65625 L 2.515625 -5.65625 L 2.515625 -4.15625 Z M 3.59375 -4.15625 "/></g></g></g></g><g fill="#ffffff" fill-opacity="1"><g transform="translate(8.584952, 9.691036)"><g><path d="M 4.140625 0.09375 C 3.617188 0.09375 3.132812 0 2.6875 -0.1875 C 2.238281 -0.382812 1.84375 -0.65625 1.5 -1 C 1.164062 -1.34375 0.898438 -1.738281 0.703125 -2.1875 C 0.503906 -2.632812 0.40625 -3.113281 0.40625 -3.625 C 0.40625 -4.144531 0.503906 -4.628906 0.703125 -5.078125 C 0.898438 -5.523438 1.164062 -5.921875 1.5 -6.265625 C 1.84375 -6.609375 2.238281 -6.875 2.6875 -7.0625 C 3.132812 -7.257812 3.617188 -7.359375 4.140625 -7.359375 C 4.660156 -7.359375 5.144531 -7.257812 5.59375 -7.0625 C 6.039062 -6.875 6.4375 -6.609375 6.78125 -6.265625 C 7.125 -5.921875 7.390625 -5.523438 7.578125 -5.078125 C 7.773438 -4.628906 7.875 -4.144531 7.875 -3.625 C 7.875 -3.113281 7.773438 -2.632812 7.578125 -2.1875 C 7.390625 -1.738281 7.125 -1.34375 6.78125 -1 C 6.4375 -0.65625 6.039062 -0.382812 5.59375 -0.1875 C 5.144531 0 4.660156 0.09375 4.140625 0.09375 Z M 4.140625 -1.71875 C 4.503906 -1.71875 4.832031 -1.800781 5.125 -1.96875 C 5.414062 -2.132812 5.640625 -2.363281 5.796875 -2.65625 C 5.960938 -2.945312 6.046875 -3.269531 6.046875 -3.625 C 6.046875 -4 5.960938 -4.328125 5.796875 -4.609375 C 5.640625 -4.898438 5.414062 -5.128906 5.125 -5.296875 C 4.832031 -5.460938 4.503906 -5.546875 4.140625 -5.546875 C 3.773438 -5.546875 3.445312 -5.460938 3.15625 -5.296875 C 2.863281 -5.128906 2.632812 -4.898438 2.46875 -4.609375 C 2.300781 -4.328125 2.21875 -4 2.21875 -3.625 C 2.21875 -3.269531 2.300781 -2.945312 2.46875 -2.65625 C 2.632812 -2.363281 2.863281 -2.132812 3.15625 -1.96875 C 3.445312 -1.800781 3.773438 -1.71875 4.140625 -1.71875 Z M 4.140625 -1.71875 "/></g></g></g><g fill="#ffffff" fill-opacity="1"><g transform="translate(18.566179, 9.691036)"><g><path d="M 4.140625 0.09375 C 3.617188 0.09375 3.132812 0 2.6875 -0.1875 C 2.238281 -0.382812 1.84375 -0.65625 1.5 -1 C 1.164062 -1.34375 0.898438 -1.738281 0.703125 -2.1875 C 0.503906 -2.632812 0.40625 -3.113281 0.40625 -3.625 C 0.40625 -4.144531 0.503906 -4.628906 0.703125 -5.078125 C 0.898438 -5.523438 1.164062 -5.921875 1.5 -6.265625 C 1.84375 -6.609375 2.238281 -6.875 2.6875 -7.0625 C 3.132812 -7.257812 3.617188 -7.359375 4.140625 -7.359375 C 4.660156 -7.359375 5.144531 -7.257812 5.59375 -7.0625 C 6.039062 -6.875 6.4375 -6.609375 6.78125 -6.265625 C 7.125 -5.921875 7.390625 -5.523438 7.578125 -5.078125 C 7.773438 -4.628906 7.875 -4.144531 7.875 -3.625 C 7.875 -3.113281 7.773438 -2.632812 7.578125 -2.1875 C 7.390625 -1.738281 7.125 -1.34375 6.78125 -1 C 6.4375 -0.65625 6.039062 -0.382812 5.59375 -0.1875 C 5.144531 0 4.660156 0.09375 4.140625 0.09375 Z M 4.140625 -1.71875 C 4.503906 -1.71875 4.832031 -1.800781 5.125 -1.96875 C 5.414062 -2.132812 5.640625 -2.363281 5.796875 -2.65625 C 5.960938 -2.945312 6.046875 -3.269531 6.046875 -3.625 C 6.046875 -4 5.960938 -4.328125 5.796875 -4.609375 C 5.640625 -4.898438 5.414062 -5.128906 5.125 -5.296875 C 4.832031 -5.460938 4.503906 -5.546875 4.140625 -5.546875 C 3.773438 -5.546875 3.445312 -5.460938 3.15625 -5.296875 C 2.863281 -5.128906 2.632812 -4.898438 2.46875 -4.609375 C 2.300781 -4.328125 2.21875 -4 2.21875 -3.625 C 2.21875 -3.269531 2.300781 -2.945312 2.46875 -2.65625 C 2.632812 -2.363281 2.863281 -2.132812 3.15625 -1.96875 C 3.445312 -1.800781 3.773438 -1.71875 4.140625 -1.71875 Z M 4.140625 -1.71875 "/></g></g></g><g fill="#ffffff" fill-opacity="1"><g transform="translate(28.547406, 9.691036)"><g><path d="M 5.234375 -5.65625 L 2.578125 -5.65625 L 2.578125 -4.4375 L 4.8125 -4.4375 L 4.8125 -2.828125 L 2.578125 -2.828125 L 2.578125 0 L 0.71875 0 L 0.71875 -7.265625 L 5.234375 -7.265625 Z M 5.234375 -5.65625 "/></g></g></g><g fill="#ffffff" fill-opacity="1"><g transform="translate(35.572311, 9.691036)"><g><path d="M 0.71875 0 L 0.71875 -7.265625 L 2.578125 -7.265625 L 2.578125 0 Z M 0.71875 0 "/></g></g></g><g fill="#ffffff" fill-opacity="1"><g transform="translate(40.573825, 9.691036)"><g><path d="M 5.890625 -7.265625 L 7.734375 -7.265625 L 7.734375 0 L 5.78125 0 L 2.515625 -4.453125 L 2.515625 0 L 0.671875 0 L 0.671875 -7.265625 L 2.609375 -7.265625 L 5.890625 -2.828125 Z M 5.890625 -7.265625 "/></g></g></g><g fill="#ffffff" fill-opacity="1"><g transform="translate(50.688335, 9.691036)"><g><path d="M 4.125 -4.03125 L 7.875 -4.03125 L 7.875 -3.625 C 7.875 -3.113281 7.773438 -2.632812 7.578125 -2.1875 C 7.390625 -1.738281 7.125 -1.34375 6.78125 -1 C 6.4375 -0.65625 6.039062 -0.382812 5.59375 -0.1875 C 5.144531 0 4.660156 0.09375 4.140625 0.09375 C 3.617188 0.09375 3.132812 0 2.6875 -0.1875 C 2.238281 -0.382812 1.84375 -0.65625 1.5 -1 C 1.164062 -1.34375 0.898438 -1.738281 0.703125 -2.1875 C 0.503906 -2.632812 0.40625 -3.113281 0.40625 -3.625 C 0.40625 -4.144531 0.503906 -4.628906 0.703125 -5.078125 C 0.898438 -5.523438 1.164062 -5.921875 1.5 -6.265625 C 1.84375 -6.609375 2.238281 -6.875 2.6875 -7.0625 C 3.132812 -7.257812 3.617188 -7.359375 4.140625 -7.359375 C 4.859375 -7.359375 5.515625 -7.171875 6.109375 -6.796875 C 6.703125 -6.421875 7.148438 -5.929688 7.453125 -5.328125 L 5.859375 -4.515625 C 5.703125 -4.828125 5.472656 -5.078125 5.171875 -5.265625 C 4.867188 -5.453125 4.523438 -5.546875 4.140625 -5.546875 C 3.773438 -5.546875 3.445312 -5.460938 3.15625 -5.296875 C 2.863281 -5.128906 2.632812 -4.898438 2.46875 -4.609375 C 2.300781 -4.328125 2.21875 -4 2.21875 -3.625 C 2.21875 -3.269531 2.300781 -2.945312 2.46875 -2.65625 C 2.632812 -2.363281 2.863281 -2.132812 3.15625 -1.96875 C 3.445312 -1.800781 3.773438 -1.71875 4.140625 -1.71875 C 4.492188 -1.71875 4.8125 -1.796875 5.09375 -1.953125 C 5.382812 -2.117188 5.613281 -2.335938 5.78125 -2.609375 L 4.125 -2.609375 Z M 4.125 -4.03125 "/></g></g></g><g fill="#ffffff" fill-opacity="1"><g transform="translate(60.669562, 9.691036)"><g/></g></g><g fill="#ffffff" fill-opacity="1"><g transform="translate(65.283356, 9.691036)"><g><path d="M 1.0625 1.453125 L 1.0625 -7.265625 L 2.15625 -7.265625 L 2.15625 1.453125 Z M 1.0625 1.453125 "/></g></g></g><g fill="#ffffff" fill-opacity="1"><g transform="translate(70.224293, 9.691036)"><g/></g></g><g fill="#ffffff" fill-opacity="1"><g transform="translate(74.838087, 9.691036)"><g><path d="M 5.234375 -5.65625 L 2.578125 -5.65625 L 2.578125 -4.4375 L 4.8125 -4.4375 L 4.8125 -2.828125 L 2.578125 -2.828125 L 2.578125 -1.609375 L 5.234375 -1.609375 L 5.234375 0 L 0.71875 0 L 0.71875 -7.265625 L 5.234375 -7.265625 Z M 5.234375 -5.65625 "/></g></g></g><g fill="#ffffff" fill-opacity="1"><g transform="translate(82.190123, 9.691036)"><g><path d="M 6.84375 0 L 4.734375 0 L 3.3125 -2.234375 L 1.90625 0 L -0.203125 0 L 2.328125 -3.765625 L -0.03125 -7.265625 L 2.078125 -7.265625 L 3.3125 -5.296875 L 4.5625 -7.265625 L 6.671875 -7.265625 L 4.3125 -3.765625 Z M 6.84375 0 "/></g></g></g><g fill="#ffffff" fill-opacity="1"><g transform="translate(90.535682, 9.691036)"><g><path d="M 5.296875 -7.265625 L 5.296875 -5.65625 L 3.515625 -5.65625 L 3.515625 0 L 1.671875 0 L 1.671875 -5.65625 L -0.109375 -5.65625 L -0.109375 -7.265625 Z M 5.296875 -7.265625 "/></g></g></g><g fill="#ffffff" fill-opacity="1"><g transform="translate(97.427304, 9.691036)"><g><path d="M 5.234375 -5.65625 L 2.578125 -5.65625 L 2.578125 -4.4375 L 4.8125 -4.4375 L 4.8125 -2.828125 L 2.578125 -2.828125 L 2.578125 -1.609375 L 5.234375 -1.609375 L 5.234375 0 L 0.71875 0 L 0.71875 -7.265625 L 5.234375 -7.265625 Z M 5.234375 -5.65625 "/></g></g></g><g fill="#ffffff" fill-opacity="1"><g transform="translate(104.77934, 9.691036)"><g><path d="M 4.703125 -2.875 L 6.71875 0 L 4.640625 0 L 2.9375 -2.65625 L 2.515625 -2.65625 L 2.515625 0 L 0.671875 0 L 0.671875 -7.265625 L 3.90625 -7.265625 C 4.332031 -7.265625 4.710938 -7.160156 5.046875 -6.953125 C 5.390625 -6.742188 5.65625 -6.46875 5.84375 -6.125 C 6.03125 -5.78125 6.125 -5.398438 6.125 -4.984375 C 6.125 -4.484375 5.992188 -4.039062 5.734375 -3.65625 C 5.472656 -3.28125 5.128906 -3.019531 4.703125 -2.875 Z M 3.59375 -4.15625 C 3.8125 -4.15625 3.988281 -4.222656 4.125 -4.359375 C 4.269531 -4.503906 4.34375 -4.6875 4.34375 -4.90625 C 4.34375 -5.125 4.269531 -5.300781 4.125 -5.4375 C 3.988281 -5.582031 3.8125 -5.65625 3.59375 -5.65625 L 2.515625 -5.65625 L 2.515625 -4.15625 Z M 3.59375 -4.15625 "/></g></g></g><g fill="#ffffff" fill-opacity="1"><g transform="translate(113.100667, 9.691036)"><g><path d="M 0.71875 0 L 0.71875 -7.265625 L 2.578125 -7.265625 L 2.578125 0 Z M 0.71875 0 "/></g></g></g><g fill="#ffffff" fill-opacity="1"><g transform="translate(118.102182, 9.691036)"><g><path d="M 4.140625 0.09375 C 3.617188 0.09375 3.132812 0 2.6875 -0.1875 C 2.238281 -0.382812 1.84375 -0.65625 1.5 -1 C 1.164062 -1.34375 0.898438 -1.738281 0.703125 -2.1875 C 0.503906 -2.632812 0.40625 -3.113281 0.40625 -3.625 C 0.40625 -4.144531 0.503906 -4.628906 0.703125 -5.078125 C 0.898438 -5.523438 1.164062 -5.921875 1.5 -6.265625 C 1.84375 -6.609375 2.238281 -6.875 2.6875 -7.0625 C 3.132812 -7.257812 3.617188 -7.359375 4.140625 -7.359375 C 4.660156 -7.359375 5.144531 -7.257812 5.59375 -7.0625 C 6.039062 -6.875 6.4375 -6.609375 6.78125 -6.265625 C 7.125 -5.921875 7.390625 -5.523438 7.578125 -5.078125 C 7.773438 -4.628906 7.875 -4.144531 7.875 -3.625 C 7.875 -3.113281 7.773438 -2.632812 7.578125 -2.1875 C 7.390625 -1.738281 7.125 -1.34375 6.78125 -1 C 6.4375 -0.65625 6.039062 -0.382812 5.59375 -0.1875 C 5.144531 0 4.660156 0.09375 4.140625 0.09375 Z M 4.140625 -1.71875 C 4.503906 -1.71875 4.832031 -1.800781 5.125 -1.96875 C 5.414062 -2.132812 5.640625 -2.363281 5.796875 -2.65625 C 5.960938 -2.945312 6.046875 -3.269531 6.046875 -3.625 C 6.046875 -4 5.960938 -4.328125 5.796875 -4.609375 C 5.640625 -4.898438 5.414062 -5.128906 5.125 -5.296875 C 4.832031 -5.460938 4.503906 -5.546875 4.140625 -5.546875 C 3.773438 -5.546875 3.445312 -5.460938 3.15625 -5.296875 C 2.863281 -5.128906 2.632812 -4.898438 2.46875 -4.609375 C 2.300781 -4.328125 2.21875 -4 2.21875 -3.625 C 2.21875 -3.269531 2.300781 -2.945312 2.46875 -2.65625 C 2.632812 -2.363281 2.863281 -2.132812 3.15625 -1.96875 C 3.445312 -1.800781 3.773438 -1.71875 4.140625 -1.71875 Z M 4.140625 -1.71875 "/></g></g></g><g fill="#ffffff" fill-opacity="1"><g transform="translate(128.083409, 9.691036)"><g><path d="M 4.703125 -2.875 L 6.71875 0 L 4.640625 0 L 2.9375 -2.65625 L 2.515625 -2.65625 L 2.515625 0 L 0.671875 0 L 0.671875 -7.265625 L 3.90625 -7.265625 C 4.332031 -7.265625 4.710938 -7.160156 5.046875 -6.953125 C 5.390625 -6.742188 5.65625 -6.46875 5.84375 -6.125 C 6.03125 -5.78125 6.125 -5.398438 6.125 -4.984375 C 6.125 -4.484375 5.992188 -4.039062 5.734375 -3.65625 C 5.472656 -3.28125 5.128906 -3.019531 4.703125 -2.875 Z M 3.59375 -4.15625 C 3.8125 -4.15625 3.988281 -4.222656 4.125 -4.359375 C 4.269531 -4.503906 4.34375 -4.6875 4.34375 -4.90625 C 4.34375 -5.125 4.269531 -5.300781 4.125 -5.4375 C 3.988281 -5.582031 3.8125 -5.65625 3.59375 -5.65625 L 2.515625 -5.65625 L 2.515625 -4.15625 Z M 3.59375 -4.15625 "/></g></g></g><g fill="#ffffff" fill-opacity="1"><g transform="translate(136.404736, 9.691036)"><g><path d="M 3.046875 0.09375 C 2.597656 0.09375 2.1875 0.0195312 1.8125 -0.125 C 1.4375 -0.269531 1.109375 -0.46875 0.828125 -0.71875 C 0.546875 -0.976562 0.320312 -1.265625 0.15625 -1.578125 L 1.671875 -2.515625 C 1.796875 -2.242188 1.976562 -2.03125 2.21875 -1.875 C 2.46875 -1.71875 2.75 -1.640625 3.0625 -1.640625 C 3.300781 -1.640625 3.476562 -1.679688 3.59375 -1.765625 C 3.71875 -1.859375 3.78125 -1.976562 3.78125 -2.125 C 3.78125 -2.3125 3.703125 -2.457031 3.546875 -2.5625 C 3.390625 -2.664062 3.179688 -2.757812 2.921875 -2.84375 C 2.671875 -2.925781 2.40625 -3.015625 2.125 -3.109375 C 1.84375 -3.203125 1.570312 -3.328125 1.3125 -3.484375 C 1.0625 -3.648438 0.859375 -3.863281 0.703125 -4.125 C 0.546875 -4.382812 0.46875 -4.722656 0.46875 -5.140625 C 0.46875 -5.660156 0.585938 -6.082031 0.828125 -6.40625 C 1.078125 -6.738281 1.390625 -6.976562 1.765625 -7.125 C 2.140625 -7.28125 2.515625 -7.359375 2.890625 -7.359375 C 3.347656 -7.359375 3.78125 -7.257812 4.1875 -7.0625 C 4.601562 -6.875 4.953125 -6.613281 5.234375 -6.28125 L 4.015625 -5.109375 C 3.617188 -5.523438 3.238281 -5.734375 2.875 -5.734375 C 2.726562 -5.734375 2.601562 -5.695312 2.5 -5.625 C 2.394531 -5.550781 2.34375 -5.4375 2.34375 -5.28125 C 2.34375 -5.09375 2.421875 -4.945312 2.578125 -4.84375 C 2.734375 -4.75 2.9375 -4.660156 3.1875 -4.578125 C 3.4375 -4.503906 3.703125 -4.414062 3.984375 -4.3125 C 4.265625 -4.21875 4.53125 -4.082031 4.78125 -3.90625 C 5.03125 -3.738281 5.234375 -3.507812 5.390625 -3.21875 C 5.546875 -2.9375 5.625 -2.566406 5.625 -2.109375 C 5.625 -1.640625 5.503906 -1.238281 5.265625 -0.90625 C 5.035156 -0.582031 4.722656 -0.332031 4.328125 -0.15625 C 3.929688 0.0078125 3.503906 0.09375 3.046875 0.09375 Z M 3.046875 0.09375 "/></g></g></g><g fill="#ffffff" fill-opacity="1"><g transform="translate(144.01121, 9.691036)"><g/></g></g><g fill="#ffffff" fill-opacity="1"><g transform="translate(148.625004, 9.691036)"><g><path d="M 1.0625 1.453125 L 1.0625 -7.265625 L 2.15625 -7.265625 L 2.15625 1.453125 Z M 1.0625 1.453125 "/></g></g></g><g fill="#ffffff" fill-opacity="1"><g transform="translate(153.565941, 9.691036)"><g/></g></g><g fill="#ffffff" fill-opacity="1"><g transform="translate(158.179735, 9.691036)"><g><path d="M 8.265625 -7.265625 L 10.21875 -7.265625 L 8.3125 0 L 6.15625 0 L 5.015625 -4.625 L 3.859375 0 L 1.6875 0 L -0.1875 -7.265625 L 1.765625 -7.265625 L 2.875 -2.484375 L 4.171875 -7.265625 L 5.84375 -7.265625 L 7.125 -2.484375 Z M 8.265625 -7.265625 "/></g></g></g><g fill="#ffffff" fill-opacity="1"><g transform="translate(169.905683, 9.691036)"><g><path d="M 5.125 0 L 4.71875 -1.265625 L 2.171875 -1.265625 L 1.78125 0 L -0.21875 0 L 2.40625 -7.265625 L 4.484375 -7.265625 L 7.109375 0 Z M 2.65625 -2.765625 L 4.265625 -2.765625 L 3.453125 -5.34375 Z M 2.65625 -2.765625 "/></g></g></g><g fill="#ffffff" fill-opacity="1"><g transform="translate(178.517795, 9.691036)"><g><path d="M 5.296875 -7.265625 L 5.296875 -5.65625 L 3.515625 -5.65625 L 3.515625 0 L 1.671875 0 L 1.671875 -5.65625 L -0.109375 -5.65625 L -0.109375 -7.265625 Z M 5.296875 -7.265625 "/></g></g></g><g fill="#ffffff" fill-opacity="1"><g transform="translate(185.409417, 9.691036)"><g><path d="M 5.234375 -5.65625 L 2.578125 -5.65625 L 2.578125 -4.4375 L 4.8125 -4.4375 L 4.8125 -2.828125 L 2.578125 -2.828125 L 2.578125 -1.609375 L 5.234375 -1.609375 L 5.234375 0 L 0.71875 0 L 0.71875 -7.265625 L 5.234375 -7.265625 Z M 5.234375 -5.65625 "/></g></g></g><g fill="#ffffff" fill-opacity="1"><g transform="translate(192.761453, 9.691036)"><g><path d="M 4.703125 -2.875 L 6.71875 0 L 4.640625 0 L 2.9375 -2.65625 L 2.515625 -2.65625 L 2.515625 0 L 0.671875 0 L 0.671875 -7.265625 L 3.90625 -7.265625 C 4.332031 -7.265625 4.710938 -7.160156 5.046875 -6.953125 C 5.390625 -6.742188 5.65625 -6.46875 5.84375 -6.125 C 6.03125 -5.78125 6.125 -5.398438 6.125 -4.984375 C 6.125 -4.484375 5.992188 -4.039062 5.734375 -3.65625 C 5.472656 -3.28125 5.128906 -3.019531 4.703125 -2.875 Z M 3.59375 -4.15625 C 3.8125 -4.15625 3.988281 -4.222656 4.125 -4.359375 C 4.269531 -4.503906 4.34375 -4.6875 4.34375 -4.90625 C 4.34375 -5.125 4.269531 -5.300781 4.125 -5.4375 C 3.988281 -5.582031 3.8125 -5.65625 3.59375 -5.65625 L 2.515625 -5.65625 L 2.515625 -4.15625 Z M 3.59375 -4.15625 "/></g></g></g><g fill="#ffffff" fill-opacity="1"><g transform="translate(201.08278, 9.691036)"><g><path d="M 3.90625 -7.265625 C 4.320312 -7.265625 4.695312 -7.160156 5.03125 -6.953125 C 5.363281 -6.753906 5.628906 -6.484375 5.828125 -6.140625 C 6.023438 -5.804688 6.125 -5.4375 6.125 -5.03125 C 6.125 -4.601562 6.023438 -4.226562 5.828125 -3.90625 C 5.628906 -3.582031 5.363281 -3.320312 5.03125 -3.125 C 4.695312 -2.9375 4.320312 -2.84375 3.90625 -2.84375 L 2.515625 -2.84375 L 2.515625 0 L 0.671875 0 L 0.671875 -7.265625 Z M 3.59375 -4.34375 C 3.8125 -4.34375 3.988281 -4.40625 4.125 -4.53125 C 4.269531 -4.65625 4.34375 -4.816406 4.34375 -5.015625 C 4.34375 -5.203125 4.269531 -5.351562 4.125 -5.46875 C 3.988281 -5.59375 3.8125 -5.65625 3.59375 -5.65625 L 2.515625 -5.65625 L 2.515625 -4.34375 Z M 3.59375 -4.34375 "/></g></g></g><g fill="#ffffff" fill-opacity="1"><g transform="translate(208.907334, 9.691036)"><g><path d="M 4.703125 -2.875 L 6.71875 0 L 4.640625 0 L 2.9375 -2.65625 L 2.515625 -2.65625 L 2.515625 0 L 0.671875 0 L 0.671875 -7.265625 L 3.90625 -7.265625 C 4.332031 -7.265625 4.710938 -7.160156 5.046875 -6.953125 C 5.390625 -6.742188 5.65625 -6.46875 5.84375 -6.125 C 6.03125 -5.78125 6.125 -5.398438 6.125 -4.984375 C 6.125 -4.484375 5.992188 -4.039062 5.734375 -3.65625 C 5.472656 -3.28125 5.128906 -3.019531 4.703125 -2.875 Z M 3.59375 -4.15625 C 3.8125 -4.15625 3.988281 -4.222656 4.125 -4.359375 C 4.269531 -4.503906 4.34375 -4.6875 4.34375 -4.90625 C 4.34375 -5.125 4.269531 -5.300781 4.125 -5.4375 C 3.988281 -5.582031 3.8125 -5.65625 3.59375 -5.65625 L 2.515625 -5.65625 L 2.515625 -4.15625 Z M 3.59375 -4.15625 "/></g></g></g><g fill="#ffffff" fill-opacity="1"><g transform="translate(217.228661, 9.691036)"><g><path d="M 4.140625 0.09375 C 3.617188 0.09375 3.132812 0 2.6875 -0.1875 C 2.238281 -0.382812 1.84375 -0.65625 1.5 -1 C 1.164062 -1.34375 0.898438 -1.738281 0.703125 -2.1875 C 0.503906 -2.632812 0.40625 -3.113281 0.40625 -3.625 C 0.40625 -4.144531 0.503906 -4.628906 0.703125 -5.078125 C 0.898438 -5.523438 1.164062 -5.921875 1.5 -6.265625 C 1.84375 -6.609375 2.238281 -6.875 2.6875 -7.0625 C 3.132812 -7.257812 3.617188 -7.359375 4.140625 -7.359375 C 4.660156 -7.359375 5.144531 -7.257812 5.59375 -7.0625 C 6.039062 -6.875 6.4375 -6.609375 6.78125 -6.265625 C 7.125 -5.921875 7.390625 -5.523438 7.578125 -5.078125 C 7.773438 -4.628906 7.875 -4.144531 7.875 -3.625 C 7.875 -3.113281 7.773438 -2.632812 7.578125 -2.1875 C 7.390625 -1.738281 7.125 -1.34375 6.78125 -1 C 6.4375 -0.65625 6.039062 -0.382812 5.59375 -0.1875 C 5.144531 0 4.660156 0.09375 4.140625 0.09375 Z M 4.140625 -1.71875 C 4.503906 -1.71875 4.832031 -1.800781 5.125 -1.96875 C 5.414062 -2.132812 5.640625 -2.363281 5.796875 -2.65625 C 5.960938 -2.945312 6.046875 -3.269531 6.046875 -3.625 C 6.046875 -4 5.960938 -4.328125 5.796875 -4.609375 C 5.640625 -4.898438 5.414062 -5.128906 5.125 -5.296875 C 4.832031 -5.460938 4.503906 -5.546875 4.140625 -5.546875 C 3.773438 -5.546875 3.445312 -5.460938 3.15625 -5.296875 C 2.863281 -5.128906 2.632812 -4.898438 2.46875 -4.609375 C 2.300781 -4.328125 2.21875 -4 2.21875 -3.625 C 2.21875 -3.269531 2.300781 -2.945312 2.46875 -2.65625 C 2.632812 -2.363281 2.863281 -2.132812 3.15625 -1.96875 C 3.445312 -1.800781 3.773438 -1.71875 4.140625 -1.71875 Z M 4.140625 -1.71875 "/></g></g></g><g fill="#ffffff" fill-opacity="1"><g transform="translate(227.2099, 9.691036)"><g><path d="M 4.140625 0.09375 C 3.617188 0.09375 3.132812 0 2.6875 -0.1875 C 2.238281 -0.382812 1.84375 -0.65625 1.5 -1 C 1.164062 -1.34375 0.898438 -1.738281 0.703125 -2.1875 C 0.503906 -2.632812 0.40625 -3.113281 0.40625 -3.625 C 0.40625 -4.144531 0.503906 -4.628906 0.703125 -5.078125 C 0.898438 -5.523438 1.164062 -5.921875 1.5 -6.265625 C 1.84375 -6.609375 2.238281 -6.875 2.6875 -7.0625 C 3.132812 -7.257812 3.617188 -7.359375 4.140625 -7.359375 C 4.660156 -7.359375 5.144531 -7.257812 5.59375 -7.0625 C 6.039062 -6.875 6.4375 -6.609375 6.78125 -6.265625 C 7.125 -5.921875 7.390625 -5.523438 7.578125 -5.078125 C 7.773438 -4.628906 7.875 -4.144531 7.875 -3.625 C 7.875 -3.113281 7.773438 -2.632812 7.578125 -2.1875 C 7.390625 -1.738281 7.125 -1.34375 6.78125 -1 C 6.4375 -0.65625 6.039062 -0.382812 5.59375 -0.1875 C 5.144531 0 4.660156 0.09375 4.140625 0.09375 Z M 4.140625 -1.71875 C 4.503906 -1.71875 4.832031 -1.800781 5.125 -1.96875 C 5.414062 -2.132812 5.640625 -2.363281 5.796875 -2.65625 C 5.960938 -2.945312 6.046875 -3.269531 6.046875 -3.625 C 6.046875 -4 5.960938 -4.328125 5.796875 -4.609375 C 5.640625 -4.898438 5.414062 -5.128906 5.125 -5.296875 C 4.832031 -5.460938 4.503906 -5.546875 4.140625 -5.546875 C 3.773438 -5.546875 3.445312 -5.460938 3.15625 -5.296875 C 2.863281 -5.128906 2.632812 -4.898438 2.46875 -4.609375 C 2.300781 -4.328125 2.21875 -4 2.21875 -3.625 C 2.21875 -3.269531 2.300781 -2.945312 2.46875 -2.65625 C 2.632812 -2.363281 2.863281 -2.132812 3.15625 -1.96875 C 3.445312 -1.800781 3.773438 -1.71875 4.140625 -1.71875 Z M 4.140625 -1.71875 "/></g></g></g><g fill="#ffffff" fill-opacity="1"><g transform="translate(237.191139, 9.691036)"><g><path d="M 5.234375 -5.65625 L 2.578125 -5.65625 L 2.578125 -4.4375 L 4.8125 -4.4375 L 4.8125 -2.828125 L 2.578125 -2.828125 L 2.578125 0 L 0.71875 0 L 0.71875 -7.265625 L 5.234375 -7.265625 Z M 5.234375 -5.65625 "/></g></g></g><g fill="#ffffff" fill-opacity="1"><g transform="translate(244.21602, 9.691036)"><g><path d="M 0.71875 0 L 0.71875 -7.265625 L 2.578125 -7.265625 L 2.578125 0 Z M 0.71875 0 "/></g></g></g><g fill="#ffffff" fill-opacity="1"><g transform="translate(249.217547, 9.691036)"><g><path d="M 5.890625 -7.265625 L 7.734375 -7.265625 L 7.734375 0 L 5.78125 0 L 2.515625 -4.453125 L 2.515625 0 L 0.671875 0 L 0.671875 -7.265625 L 2.609375 -7.265625 L 5.890625 -2.828125 Z M 5.890625 -7.265625 "/></g></g></g><g fill="#ffffff" fill-opacity="1"><g transform="translate(259.332045, 9.691036)"><g><path d="M 4.125 -4.03125 L 7.875 -4.03125 L 7.875 -3.625 C 7.875 -3.113281 7.773438 -2.632812 7.578125 -2.1875 C 7.390625 -1.738281 7.125 -1.34375 6.78125 -1 C 6.4375 -0.65625 6.039062 -0.382812 5.59375 -0.1875 C 5.144531 0 4.660156 0.09375 4.140625 0.09375 C 3.617188 0.09375 3.132812 0 2.6875 -0.1875 C 2.238281 -0.382812 1.84375 -0.65625 1.5 -1 C 1.164062 -1.34375 0.898438 -1.738281 0.703125 -2.1875 C 0.503906 -2.632812 0.40625 -3.113281 0.40625 -3.625 C 0.40625 -4.144531 0.503906 -4.628906 0.703125 -5.078125 C 0.898438 -5.523438 1.164062 -5.921875 1.5 -6.265625 C 1.84375 -6.609375 2.238281 -6.875 2.6875 -7.0625 C 3.132812 -7.257812 3.617188 -7.359375 4.140625 -7.359375 C 4.859375 -7.359375 5.515625 -7.171875 6.109375 -6.796875 C 6.703125 -6.421875 7.148438 -5.929688 7.453125 -5.328125 L 5.859375 -4.515625 C 5.703125 -4.828125 5.472656 -5.078125 5.171875 -5.265625 C 4.867188 -5.453125 4.523438 -5.546875 4.140625 -5.546875 C 3.773438 -5.546875 3.445312 -5.460938 3.15625 -5.296875 C 2.863281 -5.128906 2.632812 -4.898438 2.46875 -4.609375 C 2.300781 -4.328125 2.21875 -4 2.21875 -3.625 C 2.21875 -3.269531 2.300781 -2.945312 2.46875 -2.65625 C 2.632812 -2.363281 2.863281 -2.132812 3.15625 -1.96875 C 3.445312 -1.800781 3.773438 -1.71875 4.140625 -1.71875 C 4.492188 -1.71875 4.8125 -1.796875 5.09375 -1.953125 C 5.382812 -2.117188 5.613281 -2.335938 5.78125 -2.609375 L 4.125 -2.609375 Z M 4.125 -4.03125 "/></g></g></g></g></g></g></g></g></g></svg>